<?xml version="1.0" standalone="no"?>
<!DOCTYPE svg PUBLIC "-//W3C//DTD SVG 20010904//EN"
 "http://www.w3.org/TR/2001/REC-SVG-20010904/DTD/svg10.dtd">
<svg version="1.0" xmlns="http://www.w3.org/2000/svg"
 width="16.000000pt" height="16.000000pt" viewBox="0 0 16.000000 16.000000"
 preserveAspectRatio="xMidYMid meet">
<metadata>
Created by potrace 1.11, written by Peter Selinger 2001-2013
</metadata>
<g transform="translate(0.000000,16.000000) scale(0.001276,-0.001276)"
fill="#000000" stroke="none">
<path d="M5838 12534 c-6 -5 -35 -9 -163 -19 -38 -3 -81 -7 -95 -9 -30 -5 -96
-14 -165 -21 -27 -3 -61 -8 -75 -11 -60 -11 -156 -27 -180 -29 -18 -2 -105
-19 -147 -29 -10 -2 -54 -12 -98 -21 -95 -20 -89 -19 -190 -45 -44 -11 -87
-22 -96 -24 -38 -9 -236 -68 -254 -76 -16 -7 -207 -71 -225 -75 -3 -1 -12 -5
-20 -8 -8 -4 -57 -22 -109 -42 -52 -20 -109 -42 -128 -50 -18 -8 -48 -22 -67
-30 -19 -8 -36 -15 -39 -15 -8 0 -190 -86 -320 -151 -204 -102 -416 -221 -429
-242 -4 -7 -8 -9 -8 -4 0 4 -19 -5 -42 -19 -122 -77 -213 -138 -216 -145 -2
-5 -8 -9 -13 -9 -13 0 -220 -148 -237 -169 -7 -9 -14 -14 -16 -11 -1 3 -19 -8
-40 -25 -20 -16 -56 -45 -79 -63 -88 -70 -208 -170 -229 -191 -9 -9 -45 -41
-80 -71 -71 -62 -366 -355 -443 -440 -63 -70 -120 -136 -165 -190 -19 -23 -39
-47 -45 -54 -18 -20 -120 -150 -150 -191 -16 -22 -32 -42 -35 -45 -3 -3 -26
-34 -51 -70 -24 -36 -46 -67 -49 -70 -3 -3 -41 -59 -84 -125 -44 -66 -92 -139
-108 -163 -16 -24 -29 -48 -31 -55 -1 -7 -5 -14 -8 -17 -8 -6 -56 -87 -142
-240 -45 -80 -160 -315 -160 -327 0 -7 -3 -13 -7 -13 -4 0 -26 -44 -49 -97
-23 -54 -49 -110 -57 -125 -8 -15 -14 -29 -14 -30 1 -3 -6 -23 -40 -108 -53
-131 -176 -494 -183 -538 -1 -9 -5 -21 -8 -27 -8 -13 -21 -66 -33 -130 -1 -5
-5 -15 -8 -21 -4 -6 -9 -21 -11 -35 -3 -13 -14 -64 -26 -112 -12 -49 -23 -101
-26 -115 -3 -15 -7 -38 -10 -52 -3 -14 -8 -41 -11 -60 -3 -19 -7 -37 -9 -40
-2 -3 -6 -24 -9 -46 -4 -22 -8 -49 -10 -59 -2 -11 -7 -40 -11 -65 -3 -25 -9
-58 -12 -75 -3 -16 -7 -46 -9 -65 -2 -19 -6 -51 -8 -70 -5 -32 -14 -111 -22
-185 -7 -75 -17 -236 -18 -297 -1 -38 -4 -68 -8 -68 -10 0 -10 -514 -1 -524 4
-4 8 -30 9 -59 1 -45 6 -102 19 -262 4 -43 25 -219 30 -245 1 -8 6 -40 10 -70
4 -30 9 -64 11 -75 3 -11 7 -36 10 -55 4 -28 31 -169 60 -315 2 -11 15 -65 29
-120 14 -55 28 -109 30 -119 28 -121 157 -522 200 -621 7 -16 30 -73 50 -125
20 -52 52 -128 71 -168 19 -41 34 -76 34 -79 0 -7 151 -309 200 -398 64 -118
203 -349 212 -353 4 -2 8 -8 8 -13 0 -27 392 -569 411 -569 5 0 9 -5 9 -11 0
-10 127 -161 229 -274 78 -84 393 -397 461 -456 119 -104 217 -185 281 -234
35 -27 66 -52 69 -56 11 -13 269 -198 360 -257 52 -34 100 -65 105 -69 14 -11
214 -131 300 -180 75 -43 322 -169 445 -226 172 -81 541 -227 572 -227 8 0 18
-4 23 -9 9 -8 355 -114 409 -125 11 -3 55 -14 96 -25 41 -11 86 -22 100 -25
208 -43 280 -57 305 -61 17 -2 41 -7 55 -10 22 -5 69 -12 192 -30 87 -12 108
-15 164 -21 62 -6 72 -7 219 -19 50 -4 104 -10 120 -13 44 -7 631 -8 695 0 30
4 96 10 145 13 50 3 106 8 125 10 19 2 62 7 95 10 33 4 71 8 85 10 91 11 136
17 154 21 12 3 37 7 56 9 19 2 44 6 55 9 11 2 40 7 65 11 25 4 104 20 175 35
72 16 141 31 155 34 14 2 86 21 160 41 74 20 142 38 150 40 118 28 503 167
745 270 112 47 299 138 303 148 2 4 9 7 16 7 16 0 129 59 137 72 3 5 9 10 12
10 15 -1 67 23 67 30 0 4 5 8 11 8 6 0 54 26 107 57 54 32 102 60 107 63 31
16 352 228 377 249 7 7 41 31 75 55 35 24 60 46 56 50 -3 3 1 6 10 6 8 0 22 6
29 13 7 6 72 59 143 117 72 57 132 107 135 110 3 3 45 41 95 85 119 107 124
112 117 121 -4 4 -2 4 4 1 9 -5 324 304 324 318 0 2 19 24 43 48 93 98 307
364 415 517 45 63 86 120 91 126 27 33 134 201 134 212 0 6 4 12 8 12 6 0 65
93 105 165 6 11 20 36 31 55 57 100 92 166 153 289 70 139 158 332 163 354 1
6 5 14 8 17 12 10 172 437 184 490 2 8 4 16 5 18 2 1 3 5 4 10 2 4 11 34 21
67 10 33 20 65 22 70 1 6 19 69 38 140 34 124 40 145 49 190 2 11 11 50 20 86
17 75 20 90 35 169 6 30 13 69 16 85 4 17 8 41 10 55 1 14 5 39 8 55 3 17 8
48 12 70 3 23 7 50 9 60 2 11 7 49 11 85 4 36 9 77 11 91 1 15 6 58 9 95 4 38
9 85 12 104 8 56 14 962 7 980 -10 22 -12 37 -19 115 -3 39 -7 84 -10 100 -2
17 -7 53 -11 80 -3 28 -7 59 -9 70 -1 11 -5 45 -9 75 -4 30 -9 62 -11 70 -2 8
-7 33 -10 55 -3 23 -8 52 -10 65 -3 14 -12 63 -21 110 -9 47 -22 110 -30 140
-7 30 -15 66 -18 80 -10 50 -15 70 -20 78 -3 5 -8 24 -11 42 -20 111 -183 613
-245 755 -10 22 -34 78 -53 125 -65 157 -176 392 -190 401 -5 3 -8 8 -6 10 4
8 -121 241 -179 334 -14 22 -31 49 -37 60 -69 125 -372 562 -397 573 -5 2 -8
10 -8 17 0 7 -3 15 -8 17 -4 2 -36 39 -72 83 -86 108 -173 208 -241 277 -31
32 -54 59 -53 61 5 5 -310 312 -412 402 -93 82 -100 88 -194 165 -30 25 -59
50 -65 56 -16 17 -282 214 -289 214 -4 0 -18 11 -32 25 -14 14 -31 25 -39 25
-7 0 -15 3 -17 8 -3 8 -154 112 -163 112 -3 0 -11 5 -18 10 -36 30 -223 141
-377 223 -92 49 -330 168 -385 192 -22 9 -62 27 -90 40 -133 61 -538 212 -547
204 -2 -1 -13 3 -25 10 -41 21 -418 126 -568 157 -11 2 -45 9 -75 15 -30 7
-64 13 -75 15 -11 2 -42 8 -70 14 -27 6 -66 13 -85 15 -19 3 -46 7 -59 10 -21
4 -57 9 -218 31 -18 2 -48 6 -65 8 -18 3 -71 8 -118 12 -125 10 -129 10 -137
17 -8 8 -887 9 -895 1z"/>
</g>
</svg>
